<svg
  width="32"
  height="32"
  viewBox="-2 -2 50 58"
  fill="none"
  xmlns="http://www.w3.org/2000/svg"
>
  <rect width="46" height="54" x="-2" y="-2" rx="10" fill="white"/>
  <path
    d="M29.641 40.7616C29.8958 43.8532 27.917 48.5843 26.9104 50.9341C35.6988 40.915 35.4869 33.0226 20.9807 26.2571C-8.52052 12.498 7.59153 -5.67857 31.0316 15.5464C25.6164 8.08326 14.5611 -2.4425 5.52638 2.7009C-1.67624 6.20418 0.916679 17.485 0.916679 17.485C2.28227 35.249 15.5314 51.0561 16.8623 51.3332C10.2935 45.4568 4.6507 24.266 3.71698 17.3738C3.71698 17.3738 6.34758 23.3737 17.0202 28.3117C29.3433 33.2667 29.5258 39.3638 29.641 40.7616Z"
    fill="#2563eb"
  />
  <path
    d="M18.9657 33.6789L16.1654 33.7902C14.622 39.7909 17.5967 48.3618 19.0037 51.2481C16.7941 45.4625 17.8755 36.6919 18.9657 33.6789Z"
    fill="#2563eb"
  />
  <path
    d="M44.6214 15.0065C44.1538 26.079 34.8741 47.208 30.0402 50.8097C33.5976 44.839 40.7601 29.9424 40.8327 15.157C40.9101 -0.601998 25.5719 6.85411 24.6659 6.8901C27.414 3.74524 33.2758 1.43359 35.4237 1.51327C38.3064 1.39876 45.0889 3.93407 44.6214 15.0065Z"
    fill="#2563eb"
  />
</svg>
